<svg xmlns="http://www.w3.org/2000/svg" viewBox="0 0 488 52"><g fill="none" fill-rule="evenodd"><path fill="#202020" fill-rule="nonzero" d="M41.45 38.97a27.14 27.14 0 0 1-2.69 4.83 24.34 24.34 0 0 1-3.46 4.18 6.72 6.72 0 0 1-4.45 1.97 11.1 11.1 0 0 1-4.11-.99c-1.6-.65-3.07-.98-4.42-.98-1.42 0-2.93.33-4.55.98-1.63.66-2.94 1-3.94 1.04-1.52.06-3.03-.61-4.55-2.02a25.5 25.5 0 0 1-3.62-4.33 29.98 29.98 0 0 1-3.83-7.6 27.86 27.86 0 0 1-1.61-9.07c0-3.36.72-6.25 2.17-8.67a12.71 12.71 0 0 1 4.56-4.6c1.9-1.13 3.95-1.7 6.15-1.74 1.21 0 2.8.37 4.77 1.1 1.96.74 3.22 1.12 3.77 1.12.42 0 1.82-.44 4.19-1.3 2.25-.82 4.14-1.15 5.7-1.02 4.2.34 7.37 2 9.46 4.98-3.76 2.28-5.62 5.48-5.58 9.57.03 3.2 1.19 5.85 3.46 7.96 1.01.96 2.18 1.73 3.47 2.27-.27.78-.57 1.55-.89 2.32zM31.81 1c0 2.5-.92 4.84-2.74 7-2.2 2.56-4.86 4.05-7.74 3.82-.04-.3-.06-.62-.06-.95 0-2.4 1.05-4.97 2.91-7.08.93-1.06 2.1-1.94 3.53-2.65A10.53 10.53 0 0 1 31.75 0c.04.34.06.67.06 1zm100.25 45.81c0 1.4-.6 2.19-2 2.19h-10.8V33.08h5.6l.8-6.77h-6.6v-3.39c0-1.99.4-3.38 3.2-3.38h3.8v-5.37h-5.4c-4.8 0-8.6 2.78-8.6 7.96v4.18h-6v6.96h6V49h-20c-1.4 0-2-.8-2-1.99V9.79c0-1.2.6-2.79 2-2.79h38c1.4 0 2 1.6 2 2.79V46.8zM195.6 43c-1.7.3-3.42.39-5.22.63l-5.45-16.22v16.92c-1.71.18-3.26.42-4.87.67V14h4.53l6.21 17.58V14h4.8v29zm9.4-17.66c1.84 0 4.68-.08 6.38-.08v4.84c-2.12 0-4.6 0-6.39.1v7.2c2.8-.18 5.6-.43 8.44-.52v4.67l-13.2 1.06V14h13.2v4.84H205v6.5zm26.18-6.5h-4.95V41.1c-1.6 0-3.22 0-4.77.07V18.84h-4.95V14h14.68v4.84h-.01zm7.76 6.17h6.53v4.85h-6.53v10.98h-4.7V14h13.34v4.84h-8.66v6.18l.02-.01zm16.38 11.61c2.72.06 5.46.27 8.11.43v4.78c-4.26-.28-8.53-.55-12.87-.64V14h4.76v22.62zm12.14 5.54c1.52.08 3.13.19 4.68.36V14h-4.68v28.16zM293.06 14 287 28.74l6.06 16.25c-1.79-.24-3.57-.56-5.36-.87l-3.43-8.96-3.49 8.23c-1.73-.3-3.41-.4-5.13-.64l6.13-14.2L276.24 14h5.13l3.12 8.14 3.35-8.14h5.22z"></path><g fill-rule="nonzero"><path fill="#202020" d="M392 28a24.08 24.08 0 0 1-24 24 24 24 0 0 1-24-24 24.09 24.09 0 0 1 24-24c13.11 0 24 10.89 24 24z"></path><path fill="#FFF" d="M368.27 6.24c0 .14-.14.14-.14.14-.14 0-.28 0-.28-.14s.14-.14.28-.14c0 0 .14 0 .14.14zm1.4 2.94c0 .13-.14.27-.28.27a.3.3 0 0 1-.28-.27.3.3 0 0 1 .28-.28c.14 0 .28.14.28.28zm3.49 4.87a.3.3 0 0 1-.28.28.3.3 0 0 1-.28-.28.3.3 0 0 1 .28-.28c.14 0 .28.14.28.28zm-5.72-3.2c0 .14 0 .28-.14.28s-.14-.14-.14-.28 0-.14.14-.14.14 0 .14.14zm2.09 1.1c0 .15 0 .29-.14.29s-.14-.14-.14-.28 0-.14.14-.14.14 0 .14.14zm-2.65-3.05c0 .14-.14.28-.28.28a.3.3 0 0 1-.28-.28.3.3 0 0 1 .28-.28c.14 0 .28.14.28.28zm-3.2 1.95-.15.14c-.14 0-.28-.14-.28-.14a.3.3 0 0 1 .28-.28s.14.14.14.28zm.55.41-.14.14c-.14 0-.28-.14-.28-.14a.3.3 0 0 1 .28-.28c0 .01.14.14.14.28zm.56.28c0 .14 0 .28-.14.28a.3.3 0 0 1-.28-.28s.14-.14.28-.14.14.14.14.14zm-.84.84s-.14.14-.28.14l-.14-.14c0-.14.14-.28.14-.28.14 0 .28.14.28.28zm-4.6 3.2s0 .15-.15.15c-.14 0-.14-.14-.14-.14 0-.14 0-.28.14-.28s.14.14.14.28zm.83.99c0 .14 0 .14-.14.14s-.14 0-.14-.14 0-.28.14-.28.14.14.14.28zm-.56 16.46c0 .14-.14.28-.28.28s-.14-.14-.14-.28 0-.14.14-.14.28 0 .28.14zm.14 4.6a.3.3 0 0 1-.28.29.3.3 0 0 1-.28-.28.3.3 0 0 1 .28-.28.3.3 0 0 1 .28.28zm-2.65 2.38-.14.14c-.14 0-.28-.14-.28-.14a.3.3 0 0 1 .28-.28s.14.14.14.28zm-3.07.84a.3.3 0 0 1-.28.28.3.3 0 0 1-.28-.28c0-.14.14-.14.28-.14s.28 0 .28.14zm-.7-2.1c0 .14-.14.28-.14.28-.14 0-.28-.14-.28-.27 0-.14.14-.14.28-.14 0 0 .14 0 .14.14zm-.27 1.4c0 .14-.14.14-.28.14s-.14 0-.14-.14 0-.28.14-.28a.3.3 0 0 1 .28.28zm-2.37-1.12c0 .14-.14.14-.14.14-.14 0-.28 0-.28-.14a.3.3 0 0 1 .28-.27s.14.13.14.27zm8.08 3.76c0 .14-.14.14-.14.14-.13 0-.27 0-.27-.14a.3.3 0 0 1 .27-.27s.14.14.14.27zm2.38-1.8c0 .14 0 .28-.14.28a.3.3 0 0 1-.28-.28.3.3 0 0 1 .28-.28c.14 0 .14.14.14.28zm.28 2.22c0 .14 0 .28-.14.28s-.14-.14-.14-.28c0 0 0-.14.14-.14s.14.14.14.14zm10.04-2.08c0 .14 0 .14-.14.14s-.28 0-.28-.14a.3.3 0 0 1 .28-.28c.14 0 .14.14.14.28zm-4.6 1.66s-.14.14-.28.14l-.14-.14c0-.13.14-.27.14-.27.14 0 .28.14.28.27zm12.56 2.38s-.14.14-.28.14l-.14-.14c0-.14.14-.28.14-.28.14 0 .28.14.28.28zm.98-9.35a.3.3 0 0 1-.28.28c-.14 0-.14-.14-.14-.28s0-.14.14-.14.28 0 .28.14zm-1.96 1.4c0 .14 0 .14-.14.14s-.28 0-.28-.14a.3.3 0 0 1 .28-.28c.14 0 .14.14.14.28zm1.96.28a.3.3 0 0 1-.28.28.3.3 0 0 1-.28-.28c0-.14.14-.14.28-.14s.28 0 .28.14zm-1.96 2.37c0 .14 0 .28-.14.28a.3.3 0 0 1-.28-.28c0-.14.14-.14.28-.14s.14 0 .14.14zm4.88-5.3c0 .14 0 .14-.14.14s-.14 0-.14-.14 0-.14.14-.14.14 0 .14.14zm.56 1.11a.3.3 0 0 1-.28.28.3.3 0 0 1-.28-.28s.14-.14.28-.14.28.14.28.14zm3.35 1.54c0 .14-.14.14-.28.14s-.28 0-.28-.14a.3.3 0 0 1 .28-.28.3.3 0 0 1 .28.28zm-3.5 2.51s0 .14-.13.14c-.14 0-.14-.14-.14-.14 0-.14 0-.28.14-.28s.14.14.14.28zm2.24-2.1c0 .15-.14.15-.28.15 0 0-.14 0-.14-.14s.14-.14.14-.14c.14 0 .28 0 .28.14zm-.42 3.22-.14.14c-.14 0-.28-.14-.28-.14a.3.3 0 0 1 .28-.28s.14.14.14.28zM372.46 8.62c0-.14.14-.14.28-.28v-.42l.14.42c.14.14.28.14.28.28l.55.14-.55.14s-.14.14-.28.14l-.14.55v-.55a.3.3 0 0 1-.28-.28h-.42l.42-.14zm-13.54 36.97c.14-.14.14-.28.28-.28l.14-.56.14.56s.14.14.14.28h.56l-.56.14c0 .14-.14.14-.28.28v.41l-.14-.41-.28-.28-.41-.14h.41zm24.84-4.88s.14-.14.28-.14l.14-.56v.56c.14 0 .28.14.28.28h.55l-.55.14c0 .14-.14.14-.28.28v.42l-.14-.56c-.14 0-.28 0-.28-.14l-.42-.14.42-.14zm1.95-5.3c.14 0 .14-.15.28-.15l.14-.55v.55a.3.3 0 0 1 .28.28h.56l-.56.14c0 .14-.14.14-.28.28v.42l-.14-.56c-.14 0-.28 0-.28-.14l-.42-.14.42-.14zm-24.27-19.54c0-.14.14-.14.28-.28v-.42l.14.42.28.28.41.14H362c0 .14 0 .28-.14.28l-.14.55-.14-.55s-.14-.14-.14-.28h-.56l.56-.14zm-1.68 11.17c1.82 3.07 3.91 5.44 5.59 7.54 1.4 1.95 4.32 2.93 3.35 3.77-1.12.97-3.91-3.5-3.91-3.5a60.92 60.92 0 0 1-5.45-7.67l.42-.14z"></path><path fill="#999" d="M341.06 35.13c8.5-5.59 23.58-9.21 35.87-14.1 9.34-3.77 17.58-8.37 22.18-14.79-11.44 23.02-42.98 20.37-57.49 29.16l-.56-.27z"></path><path fill="#FFF" d="M361.02 23.69h4.19l3.2 7.81.99.98h-5.59l.98-.98-.28-.97h-3.21l-.28 1.11.7.84h-2.8l.98-.98 1.96-6.83-.84-.98zm2.93 5.43-1.26-3.07-.97 3.07h2.23zm17.02-5.43h4.33l3.21 7.81.98.98h-5.58l.97-.98-.28-.97h-3.2l-.29 1.11.7.84h-2.8l.99-.98 1.95-6.83-.98-.98zm3.07 5.43-1.26-3.07-.98 3.07h2.24zm-28.89 0v-4.47l-.83-.97h2.93l-.84.97v6.84l.98.97h-3.91l-3.35-5.72v4.75l.84.97h-3.08l.98-.97v-6.84l-.84-.97h3.91l3.21 5.44zm22.47-3.2-.14-2.65-.83.56a5.38 5.38 0 0 0-3.91.14c-.98.41-2.1 1.4-1.96 2.79.14 1.4 1.26 1.95 2.24 2.37 1.25.56 2.65.84 2.65 1.54 0 .56-.84.83-1.4.83-.56 0-2.51-.14-3.49-1.25l.28 2.79.98-.7c1.26.42 2.79.56 4.19.14 1.4-.42 2.79-1.53 1.95-3.63-.28-.84-1.25-1.4-1.81-1.67-.56-.14-2.1-.84-2.52-.98-.55-.28-.55-1.26.7-1.4 1.12-.14 2.8.84 3.07 1.12z"></path><path fill="#999" d="M347.76 48.66c17.17-17.58 42.84-25.67 51.35-42.42-5.16 16.33-32.65 25.26-51.49 43.26l.14-.84z"></path><path fill="#FFF" d="M359.34 27.18c-.14-.28-.42-.7-.56-.98-4.6-8.37-3.9-16.75 4.33-13.12 7.11 3.22 13.82 11.86 16.47 18.15 1.25 2.79 4.6 14.09-6.15 9.48 10.19 4.19 8.38-6.42 2.94-14.65a43.74 43.74 0 0 0-9.63-10.32c-8.51-6.15-13.67-2.38-7.82 9.76.28.56.56.98.84 1.54l-.42.14z"></path></g><path fill="#202020" d="m447 18.27 19-8.95a3.61 3.61 0 0 1 3.18.1 641.85 641.85 0 0 1 18.05 8.55c.35.17.77.37.77.85 0 .42-.32.57-.67.74-.1.05-.22.1-.33.17l-17.18 8.04c-1.64.73-3 .73-4.55 0L447 19.19v-.92zm.1 22.83c0 .24.02.47.26.55l.91.73 17.64 8.22c1.18.55 2.36.55 3.64-.1l9.36-4.37 8.18-3.93.16-.08c.35-.16.75-.35.75-.74 0-.4-.29-.56-.59-.72a2.58 2.58 0 0 1-.32-.2l-2.45-1.18a4.41 4.41 0 0 0-4 0c-2.5 1.29-5.01 2.45-7.5 3.6-1.2.57-2.4 1.12-3.6 1.7a4.52 4.52 0 0 1-4.09 0l-10.9-5.21c-1.37-.64-2.73-.82-4.1-.1l-3.36 1.83v-.09.1zm2.45-12.02-2.55 1.3v.64l1.28.64 17.5 8.4a3.62 3.62 0 0 0 3.47 0l17.6-8.3.64-.28c.63-.46.73-.92 0-1.39l-2.56-1.29c-1.55-.73-3-.73-4.56 0l-10.94 5.26a3.85 3.85 0 0 1-3.74 0c-1.28-.63-2.58-1.24-3.89-1.85-2.12-.99-4.27-1.99-6.41-3.13-2-.92-3.83-1.2-5.84 0z"></path></g></svg>