<svg width="46" height="36" viewBox="0 0 46 36" fill="none" xmlns="http://www.w3.org/2000/svg">
<path d="M38.9663 3.01506C35.9496 1.58805 32.7581 0.574091 29.4763 0C29.0675 0.74718 28.5899 1.75214 28.2605 2.55164C24.7221 2.01374 21.2162 2.01374 17.7429 2.55164C17.4137 1.75232 16.9253 0.74718 16.5127 0C13.2277 0.574356 10.0335 1.59089 7.01534 3.02251C1.00947 12.1981 -0.618676 21.1456 0.195308 29.9664C4.1788 32.9739 8.0392 34.8008 11.8346 35.9964C12.7778 34.685 13.6116 33.2966 14.3274 31.8455C12.9647 31.3211 11.651 30.6747 10.4019 29.9141C10.7306 29.6678 11.0516 29.4111 11.3643 29.1444C18.9331 32.7235 27.157 32.7235 34.6356 29.1444C34.9497 29.4093 35.2706 29.666 35.5979 29.9141C34.3468 30.6767 33.0307 31.3243 31.6652 31.8494C32.3851 33.3063 33.2174 34.696 34.158 36C37.957 34.8047 41.821 32.9777 45.8045 29.9664C46.7597 19.741 44.1729 10.8756 38.9663 3.01506ZM15.3586 24.5418C13.0864 24.5418 11.2231 22.3972 11.2231 19.7858C11.2231 17.1744 13.0467 15.0263 15.3586 15.0263C17.6706 15.0263 19.5338 17.1706 19.4941 19.7858C19.4977 22.3972 17.6706 24.5418 15.3586 24.5418ZM30.6412 24.5418C28.369 24.5418 26.5059 22.3972 26.5059 19.7858C26.5059 17.1744 28.3293 15.0263 30.6412 15.0263C32.9532 15.0263 34.8164 17.1706 34.7767 19.7858C34.7767 22.3972 32.9532 24.5418 30.6412 24.5418Z" fill="#5865F2"/>
</svg>
