<svg width="34" height="34" viewBox="0 0 34 34" fill="none" xmlns="http://www.w3.org/2000/svg">
<path d="M28.9696 28.9701H23.9319V21.0806C23.9319 19.1993 23.8983 16.7775 21.3118 16.7775C18.6879 16.7775 18.2864 18.8273 18.2864 20.9437V28.9695H13.2488V12.7457H18.0849V14.9629H18.1527C18.6367 14.1353 19.336 13.4545 20.1763 12.993C21.0166 12.5315 21.9663 12.3065 22.9244 12.3421C28.0303 12.3421 28.9717 15.7006 28.9717 20.0699L28.9696 28.9701ZM7.56447 10.5281C5.94987 10.5284 4.64073 9.21966 4.64047 7.60506C4.6402 5.99046 5.9488 4.68132 7.56341 4.68106C9.17801 4.68066 10.4871 5.98939 10.4874 7.604C10.4875 8.37936 10.1797 9.12302 9.63153 9.6714C9.08337 10.2198 8.33983 10.528 7.56447 10.5281ZM10.0834 28.9702H5.04037V12.7457H10.0833V28.9701L10.0834 28.9702ZM31.4811 0.00247455H2.50896C1.13966 -0.0129317 0.0167344 1.08397 0 2.45326V31.5462C0.0162031 32.9162 1.139 34.0141 2.50883 33.9998H31.4811C32.8538 34.0168 33.981 32.9188 34 31.5462V2.451C33.9805 1.07905 32.8532 -0.0177129 31.4811 0.000216736" fill="#0A66C2"/>
</svg>
