<svg width="42" height="42" viewBox="0 0 42 42" fill="none" xmlns="http://www.w3.org/2000/svg">
<g clip-path="url(#clip0_24_70)">
<path d="M22 0C16.4317 0 11.0866 2.21386 7.15234 6.1507C3.21407 10.0891 1.00109 15.4303 1 21C1 26.5673 3.21484 31.9125 7.15234 35.8493C11.0866 39.7861 16.4317 42 22 42C27.5683 42 32.9134 39.7861 36.8477 35.8493C40.7852 31.9125 43 26.5673 43 21C43 15.4327 40.7852 10.0875 36.8477 6.1507C32.9134 2.21386 27.5683 0 22 0Z" fill="url(#paint0_linear_24_70)"/>
<path d="M10.5058 20.7782C16.6286 18.1112 20.7105 16.3528 22.7514 15.5033C28.5855 13.0774 29.7963 12.6561 30.587 12.6418C30.7609 12.6391 31.1481 12.682 31.4008 12.8863C31.6108 13.0586 31.6698 13.2915 31.6994 13.4551C31.7256 13.6185 31.7617 13.9909 31.7322 14.2817C31.4172 17.6023 30.0489 25.6604 29.3533 29.3797C29.0613 30.9534 28.4805 31.481 27.9194 31.5325C26.6988 31.6447 25.7734 30.7266 24.5922 29.9526C22.7449 28.7408 21.7014 27.9868 19.9066 26.8045C17.8328 25.4382 19.1781 24.6872 20.3594 23.46C20.6678 23.1387 26.0425 18.2513 26.1442 17.808C26.1573 17.7526 26.1705 17.5458 26.0458 17.4369C25.9244 17.3276 25.7439 17.365 25.6127 17.3946C25.4256 17.4366 22.4758 19.3883 16.7533 23.2493C15.9166 23.8248 15.1586 24.1054 14.4761 24.0906C13.728 24.0745 12.2842 23.6667 11.2113 23.3182C9.89876 22.8907 8.85204 22.6646 8.94391 21.9384C8.98985 21.5604 9.51157 21.1736 10.5058 20.7782V20.7782Z" fill="#E4EEF5"/>
</g>
<defs>
<linearGradient id="paint0_linear_24_70" x1="22" y1="0" x2="22" y2="42" gradientUnits="userSpaceOnUse">
<stop stop-color="#2AABEE"/>
<stop offset="1" stop-color="#229ED9"/>
</linearGradient>
<clipPath id="clip0_24_70">
<rect width="42" height="42" fill="white"/>
</clipPath>
</defs>
</svg>